<svg class="main-svg" xmlns="http://www.w3.org/2000/svg" xmlns:xlink="http://www.w3.org/1999/xlink" width="372" height="336" style="" viewBox="0 0 372 336"><rect x="0" y="0" width="372" height="336" style="fill: rgb(255, 255, 255); fill-opacity: 1;"/><defs id="defs-dab2bc"><g class="clips"><clipPath id="clipdab2bcxyplot" class="plotclip"><rect width="252" height="216"/></clipPath><clipPath class="axesclip" id="clipdab2bcx"><rect x="60" y="0" width="252" height="336"/></clipPath><clipPath class="axesclip" id="clipdab2bcy"><rect x="0" y="60" width="372" height="216"/></clipPath><clipPath class="axesclip" id="clipdab2bcxy"><rect x="60" y="60" width="252" height="216"/></clipPath></g><g class="gradients"/></defs><g class="bglayer"/><g class="layer-below"><g class="imagelayer"/><g class="shapelayer"/></g><g class="cartesianlayer"><g class="subplot xy"><g class="layer-subplot"><g class="shapelayer"/><g class="imagelayer"/></g><g class="gridlayer"><g class="x"><path class="xgrid crisp" transform="translate(122.05,0)" d="M0,60v216" style="stroke: rgb(238, 238, 238); stroke-opacity: 1; stroke-width: 1px;"/><path class="xgrid crisp" transform="translate(185.37,0)" d="M0,60v216" style="stroke: rgb(238, 238, 238); stroke-opacity: 1; stroke-width: 1px;"/><path class="xgrid crisp" transform="translate(248.68,0)" d="M0,60v216" style="stroke: rgb(238, 238, 238); stroke-opacity: 1; stroke-width: 1px;"/></g><g class="y"><path class="ygrid crisp" transform="translate(0,265.84000000000003)" d="M60,0h252" style="stroke: rgb(238, 238, 238); stroke-opacity: 1; stroke-width: 1px;"/><path class="ygrid crisp" transform="translate(0,213.19)" d="M60,0h252" style="stroke: rgb(238, 238, 238); stroke-opacity: 1; stroke-width: 1px;"/><path class="ygrid crisp" transform="translate(0,160.54000000000002)" d="M60,0h252" style="stroke: rgb(238, 238, 238); stroke-opacity: 1; stroke-width: 1px;"/><path class="ygrid crisp" transform="translate(0,107.89)" d="M60,0h252" style="stroke: rgb(238, 238, 238); stroke-opacity: 1; stroke-width: 1px;"/></g></g><g class="zerolinelayer"/><path class="xlines-below"/><path class="ylines-below"/><g class="overlines-below"/><g class="xaxislayer-below"/><g class="yaxislayer-below"/><g class="overaxes-below"/><g class="plot" transform="translate(60,60)" clip-path="url('#clipdab2bcxyplot')"><g class="scatterlayer mlayer"><g class="trace scatter trace6b39f8" style="stroke-miterlimit: 2; opacity: 1;"><g class="fills"/><g class="errorbars"/><g class="lines"><path class="js-line" d="M0,10.8L1.27,17.69L2.53,37.9L3.8,40.83L5.07,51.28L6.33,58.5L7.6,60.13L8.86,61.3L10.13,68.78L11.4,74.56L12.66,74.03L15.2,83.27L16.46,85.79L18.99,92.71L20.26,92.44L22.79,101.62L24.06,103.6L25.33,101.99L26.59,104.28L27.86,107.79L29.13,106.92L30.39,112.69L31.66,113.26L32.92,112.61L34.19,114.61L35.46,119.02L36.72,118.55L37.99,117.94L39.26,120.69L41.79,122.8L43.06,124.09L44.32,124.34L45.59,128.01L46.85,124.3L48.12,129.37L49.39,127.85L50.65,129.11L51.92,131.2L53.19,131.14L55.72,134.42L56.98,134.08L58.25,133.1L59.52,136.35L62.05,135.37L63.32,139.74L64.58,138.58L65.85,139.04L67.12,137.7L68.38,138.86L70.91,142.48L72.18,143.27L73.45,143.51L74.71,146.15L75.98,144.3L77.25,145.66L78.51,145.81L79.78,148.94L81.05,141.57L82.31,145.66L83.58,146.45L84.84,145.84L86.11,149.39L87.38,148.86L89.91,149.93L91.18,151.81L92.44,151.67L93.71,153.17L94.97,148.69L96.24,153.17L97.51,154.01L98.77,153.69L100.04,154.01L101.31,157.39L103.84,158.79L105.11,160.23L106.37,160.47L107.64,158.69L108.9,160.85L110.17,160.78L111.44,161.68L112.7,159.46L113.97,164.3L115.24,161.61L117.77,162.36L119.04,165.36L122.83,165.46L124.1,163.74L125.37,165.04L126.63,163.97L129.17,169.15L130.43,168.95L131.7,169.78L132.96,171.79L134.23,172.07L135.5,171.34L136.76,173.35L138.03,172.77L139.3,172.42L140.56,175.57L143.1,173.33L144.36,176.34L146.89,174.45L148.16,175.88L150.69,177.66L151.96,179.34L153.23,179.35L154.49,180.56L157.03,181.87L158.29,181.26L160.82,183.22L162.09,181.63L163.36,182.99L164.62,182.69L165.89,185.57L167.16,182.45L168.42,185.94L169.69,186.17L172.22,186.53L173.49,186.01L174.75,186.45L176.02,189.37L178.55,189.74L179.82,189.42L181.09,191.65L182.35,191.51L183.62,192.68L184.88,191.32L186.15,193.82L187.42,193.23L188.68,192.71L189.95,194.76L191.22,194.88L192.48,194.15L193.75,195.69L195.02,195.31L197.55,197.15L198.81,196.17L201.35,198.08L202.61,198.93L203.88,199.44L205.15,199.05L207.68,200.65L208.94,200.82L210.21,200.8L211.48,201.61L215.28,201.79L216.54,201.31L221.61,203.26L222.87,201.78L224.14,202.97L225.41,202.5L226.67,201.3L227.94,202.69L229.21,203.74L230.47,203.15L233.01,203.69L234.27,202.46L236.8,204.06L238.07,203.71L239.34,203.04L240.6,203.79L243.14,203.59L244.4,203.92L245.67,204.61L246.93,203.74L248.2,204.16L249.47,203.7L250.73,205.2L252,203.07" style="vector-effect: non-scaling-stroke; fill: none; stroke: rgb(31, 119, 180); stroke-opacity: 1; stroke-width: 2px; opacity: 1;"/></g><g class="points"/><g class="text"/></g></g></g><g class="overplot"/><path class="xlines-above crisp" d="M0,0" style="fill: none;"/><path class="ylines-above crisp" d="M0,0" style="fill: none;"/><g class="overlines-above"/><g class="xaxislayer-above"><g class="xtick"><text text-anchor="middle" x="0" y="289" transform="translate(122.05,0)" style="font-family: 'Open Sans', verdana, arial, sans-serif; font-size: 12px; fill: rgb(68, 68, 68); fill-opacity: 1; white-space: pre;">50</text></g><g class="xtick"><text text-anchor="middle" x="0" y="289" transform="translate(185.37,0)" style="font-family: 'Open Sans', verdana, arial, sans-serif; font-size: 12px; fill: rgb(68, 68, 68); fill-opacity: 1; white-space: pre;">100</text></g><g class="xtick"><text text-anchor="middle" x="0" y="289" transform="translate(248.68,0)" style="font-family: 'Open Sans', verdana, arial, sans-serif; font-size: 12px; fill: rgb(68, 68, 68); fill-opacity: 1; white-space: pre;">150</text></g><g class="xtick"><text text-anchor="middle" x="0" y="289" transform="translate(312,0)" style="font-family: 'Open Sans', verdana, arial, sans-serif; font-size: 12px; fill: rgb(68, 68, 68); fill-opacity: 1; white-space: pre;">200</text></g></g><g class="yaxislayer-above"><g class="ytick"><text text-anchor="end" x="59" y="4.199999999999999" transform="translate(0,265.84000000000003)" style="font-family: 'Open Sans', verdana, arial, sans-serif; font-size: 12px; fill: rgb(68, 68, 68); fill-opacity: 1; white-space: pre;">1.5</text></g><g class="ytick"><text text-anchor="end" x="59" y="4.199999999999999" transform="translate(0,213.19)" style="font-family: 'Open Sans', verdana, arial, sans-serif; font-size: 12px; fill: rgb(68, 68, 68); fill-opacity: 1; white-space: pre;">2</text></g><g class="ytick"><text text-anchor="end" x="59" y="4.199999999999999" transform="translate(0,160.54000000000002)" style="font-family: 'Open Sans', verdana, arial, sans-serif; font-size: 12px; fill: rgb(68, 68, 68); fill-opacity: 1; white-space: pre;">2.5</text></g><g class="ytick"><text text-anchor="end" x="59" y="4.199999999999999" transform="translate(0,107.89)" style="font-family: 'Open Sans', verdana, arial, sans-serif; font-size: 12px; fill: rgb(68, 68, 68); fill-opacity: 1; white-space: pre;">3</text></g></g><g class="overaxes-above"/></g></g><g class="polarlayer"/><g class="ternarylayer"/><g class="geolayer"/><g class="funnelarealayer"/><g class="pielayer"/><g class="treemaplayer"/><g class="sunburstlayer"/><g class="glimages"/><defs id="topdefs-dab2bc"><g class="clips"/></defs><g class="layer-above"><g class="imagelayer"/><g class="shapelayer"/></g><g class="infolayer"><g class="g-gtitle"><text class="gtitle" x="186" y="30" text-anchor="middle" dy="0em" style="font-family: 'Open Sans', verdana, arial, sans-serif; font-size: 17px; fill: rgb(68, 68, 68); opacity: 1; font-weight: normal; white-space: pre;">loss_G_cycle</text></g><g class="g-xtitle"><text class="xtitle" x="186" y="328" text-anchor="middle" style="font-family: 'Open Sans', verdana, arial, sans-serif; font-size: 14px; fill: rgb(68, 68, 68); opacity: 1; font-weight: normal; white-space: pre;">epochs</text></g><g class="g-ytitle"><text class="ytitle" transform="rotate(-90,22,168)" x="22" y="168" text-anchor="middle" style="font-family: 'Open Sans', verdana, arial, sans-serif; font-size: 14px; fill: rgb(68, 68, 68); opacity: 1; font-weight: normal; white-space: pre;">loss_G_cycle</text></g></g></svg>