<svg class="main-svg" xmlns="http://www.w3.org/2000/svg" xmlns:xlink="http://www.w3.org/1999/xlink" width="372" height="336" style="" viewBox="0 0 372 336"><rect x="0" y="0" width="372" height="336" style="fill: rgb(255, 255, 255); fill-opacity: 1;"/><defs id="defs-05c0f3"><g class="clips"><clipPath id="clip05c0f3xyplot" class="plotclip"><rect width="252" height="216"/></clipPath><clipPath class="axesclip" id="clip05c0f3x"><rect x="60" y="0" width="252" height="336"/></clipPath><clipPath class="axesclip" id="clip05c0f3y"><rect x="0" y="60" width="372" height="216"/></clipPath><clipPath class="axesclip" id="clip05c0f3xy"><rect x="60" y="60" width="252" height="216"/></clipPath></g><g class="gradients"/></defs><g class="bglayer"/><g class="layer-below"><g class="imagelayer"/><g class="shapelayer"/></g><g class="cartesianlayer"><g class="subplot xy"><g class="layer-subplot"><g class="shapelayer"/><g class="imagelayer"/></g><g class="gridlayer"><g class="x"><path class="xgrid crisp" transform="translate(122.05,0)" d="M0,60v216" style="stroke: rgb(238, 238, 238); stroke-opacity: 1; stroke-width: 1px;"/><path class="xgrid crisp" transform="translate(185.37,0)" d="M0,60v216" style="stroke: rgb(238, 238, 238); stroke-opacity: 1; stroke-width: 1px;"/><path class="xgrid crisp" transform="translate(248.68,0)" d="M0,60v216" style="stroke: rgb(238, 238, 238); stroke-opacity: 1; stroke-width: 1px;"/></g><g class="y"><path class="ygrid crisp" transform="translate(0,252.3)" d="M60,0h252" style="stroke: rgb(238, 238, 238); stroke-opacity: 1; stroke-width: 1px;"/><path class="ygrid crisp" transform="translate(0,186.62)" d="M60,0h252" style="stroke: rgb(238, 238, 238); stroke-opacity: 1; stroke-width: 1px;"/><path class="ygrid crisp" transform="translate(0,120.94)" d="M60,0h252" style="stroke: rgb(238, 238, 238); stroke-opacity: 1; stroke-width: 1px;"/></g></g><g class="zerolinelayer"/><path class="xlines-below"/><path class="ylines-below"/><g class="overlines-below"/><g class="xaxislayer-below"/><g class="yaxislayer-below"/><g class="overaxes-below"/><g class="plot" transform="translate(60,60)" clip-path="url('#clip05c0f3xyplot')"><g class="scatterlayer mlayer"><g class="trace scatter trace5620c0" style="stroke-miterlimit: 2; opacity: 1;"><g class="fills"/><g class="errorbars"/><g class="lines"><path class="js-line" d="M0,16.22L1.27,14.7L2.53,10.8L3.8,27.91L5.07,16.52L6.33,19.43L7.6,30.95L8.86,24.03L10.13,25.97L12.66,30.5L13.93,28.55L17.73,57.4L18.99,47.67L20.26,48.8L21.53,47.45L24.06,40.72L25.33,52.28L26.59,47.11L27.86,53.59L30.39,48.83L31.66,56.85L32.92,61.7L34.19,58.86L35.46,62.86L36.72,62.81L37.99,65.73L39.26,63.42L40.52,60.25L41.79,67.98L43.06,64.41L44.32,64.06L45.59,74.91L46.85,75.37L48.12,71.91L49.39,72.89L50.65,84.82L51.92,77.44L53.19,80.76L54.45,81.43L55.72,86.8L56.98,84.17L58.25,89.51L59.52,90.23L60.78,93.32L62.05,85.79L63.32,87.17L64.58,86.42L65.85,86.92L67.12,92.18L68.38,96.67L69.65,92.88L70.91,90.59L72.18,97.83L73.45,97.45L74.71,99.35L75.98,94.14L77.25,97.98L79.78,105.92L81.05,103.22L82.31,106.12L83.58,102.16L86.11,110.04L87.38,108.22L88.64,105.92L89.91,106.83L92.44,111.54L93.71,114.64L94.97,112.7L96.24,107.28L97.51,118.39L98.77,113.54L100.04,112.97L101.31,115.1L102.57,115.73L103.84,118.62L105.11,117.52L106.37,118.56L107.64,119.19L108.9,122.71L111.44,117.41L112.7,118.54L113.97,119.93L115.24,119.73L116.5,125.1L117.77,124.67L119.04,124.37L120.3,127.55L121.57,123.04L122.83,125.09L125.37,129.66L126.63,129.92L127.9,133.14L129.17,130.77L131.7,134.02L132.96,133.82L134.23,137.71L135.5,135.31L136.76,140.62L138.03,139.75L139.3,142.01L140.56,141.59L141.83,145.18L143.1,141.92L145.63,150.56L146.89,149.08L148.16,147.78L149.43,152.41L150.69,153.17L151.96,153.04L153.23,159.8L154.49,155.39L157.03,158.75L158.29,158.13L159.56,158.51L160.82,160.71L163.36,165.24L164.62,161.27L165.89,165.68L167.16,164.36L168.42,170.83L169.69,160.89L170.95,168.83L172.22,169.48L173.49,169.63L174.75,174.79L176.02,170.03L177.29,173.23L178.55,171.65L179.82,176.64L182.35,176.5L183.62,174.27L184.88,179.38L186.15,177.15L188.68,180.11L189.95,185.37L192.48,184.21L193.75,184.86L195.02,186.91L196.28,183.86L198.81,189.16L200.08,189.17L201.35,188.94L202.61,187.69L205.15,191.97L206.41,192.43L208.94,190.49L210.21,193.55L211.48,197.48L212.74,194.22L214.01,193.79L215.28,194.76L217.81,194.08L219.08,196.97L220.34,196.98L221.61,195.62L222.87,199.56L224.14,196.25L225.41,198.29L226.67,196.91L227.94,196.49L229.21,198.29L230.47,198.48L231.74,199.87L233.01,201.6L234.27,201.85L235.54,202.49L236.8,200.46L238.07,200.72L239.34,199.46L240.6,202.68L241.87,201.79L248.2,203L249.47,203.85L250.73,203.96L252,205.2" style="vector-effect: non-scaling-stroke; fill: none; stroke: rgb(31, 119, 180); stroke-opacity: 1; stroke-width: 2px; opacity: 1;"/></g><g class="points"/><g class="text"/></g></g></g><g class="overplot"/><path class="xlines-above crisp" d="M0,0" style="fill: none;"/><path class="ylines-above crisp" d="M0,0" style="fill: none;"/><g class="overlines-above"/><g class="xaxislayer-above"><g class="xtick"><text text-anchor="middle" x="0" y="289" transform="translate(122.05,0)" style="font-family: 'Open Sans', verdana, arial, sans-serif; font-size: 12px; fill: rgb(68, 68, 68); fill-opacity: 1; white-space: pre;">50</text></g><g class="xtick"><text text-anchor="middle" x="0" y="289" transform="translate(185.37,0)" style="font-family: 'Open Sans', verdana, arial, sans-serif; font-size: 12px; fill: rgb(68, 68, 68); fill-opacity: 1; white-space: pre;">100</text></g><g class="xtick"><text text-anchor="middle" x="0" y="289" transform="translate(248.68,0)" style="font-family: 'Open Sans', verdana, arial, sans-serif; font-size: 12px; fill: rgb(68, 68, 68); fill-opacity: 1; white-space: pre;">150</text></g><g class="xtick"><text text-anchor="middle" x="0" y="289" transform="translate(312,0)" style="font-family: 'Open Sans', verdana, arial, sans-serif; font-size: 12px; fill: rgb(68, 68, 68); fill-opacity: 1; white-space: pre;">200</text></g></g><g class="yaxislayer-above"><g class="ytick"><text text-anchor="end" x="59" y="4.199999999999999" transform="translate(0,252.3)" style="font-family: 'Open Sans', verdana, arial, sans-serif; font-size: 12px; fill: rgb(68, 68, 68); fill-opacity: 1; white-space: pre;">0.1</text></g><g class="ytick"><text text-anchor="end" x="59" y="4.199999999999999" transform="translate(0,186.62)" style="font-family: 'Open Sans', verdana, arial, sans-serif; font-size: 12px; fill: rgb(68, 68, 68); fill-opacity: 1; white-space: pre;">0.2</text></g><g class="ytick"><text text-anchor="end" x="59" y="4.199999999999999" transform="translate(0,120.94)" style="font-family: 'Open Sans', verdana, arial, sans-serif; font-size: 12px; fill: rgb(68, 68, 68); fill-opacity: 1; white-space: pre;">0.3</text></g></g><g class="overaxes-above"/></g></g><g class="polarlayer"/><g class="ternarylayer"/><g class="geolayer"/><g class="funnelarealayer"/><g class="pielayer"/><g class="treemaplayer"/><g class="sunburstlayer"/><g class="glimages"/><defs id="topdefs-05c0f3"><g class="clips"/></defs><g class="layer-above"><g class="imagelayer"/><g class="shapelayer"/></g><g class="infolayer"><g class="g-gtitle"><text class="gtitle" x="186" y="30" text-anchor="middle" dy="0em" style="font-family: 'Open Sans', verdana, arial, sans-serif; font-size: 17px; fill: rgb(68, 68, 68); opacity: 1; font-weight: normal; white-space: pre;">loss_D</text></g><g class="g-xtitle"><text class="xtitle" x="186" y="328" text-anchor="middle" style="font-family: 'Open Sans', verdana, arial, sans-serif; font-size: 14px; fill: rgb(68, 68, 68); opacity: 1; font-weight: normal; white-space: pre;">epochs</text></g><g class="g-ytitle"><text class="ytitle" transform="rotate(-90,22,168)" x="22" y="168" text-anchor="middle" style="font-family: 'Open Sans', verdana, arial, sans-serif; font-size: 14px; fill: rgb(68, 68, 68); opacity: 1; font-weight: normal; white-space: pre;">loss_D</text></g></g></svg>