<svg class="main-svg" xmlns="http://www.w3.org/2000/svg" xmlns:xlink="http://www.w3.org/1999/xlink" width="372" height="336" style="" viewBox="0 0 372 336"><rect x="0" y="0" width="372" height="336" style="fill: rgb(255, 255, 255); fill-opacity: 1;"/><defs id="defs-cc4e68"><g class="clips"><clipPath id="clipcc4e68xyplot" class="plotclip"><rect width="252" height="216"/></clipPath><clipPath class="axesclip" id="clipcc4e68x"><rect x="60" y="0" width="252" height="336"/></clipPath><clipPath class="axesclip" id="clipcc4e68y"><rect x="0" y="60" width="372" height="216"/></clipPath><clipPath class="axesclip" id="clipcc4e68xy"><rect x="60" y="60" width="252" height="216"/></clipPath></g><g class="gradients"/></defs><g class="bglayer"/><g class="layer-below"><g class="imagelayer"/><g class="shapelayer"/></g><g class="cartesianlayer"><g class="subplot xy"><g class="layer-subplot"><g class="shapelayer"/><g class="imagelayer"/></g><g class="gridlayer"><g class="x"><path class="xgrid crisp" transform="translate(122.05,0)" d="M0,60v216" style="stroke: rgb(238, 238, 238); stroke-opacity: 1; stroke-width: 1px;"/><path class="xgrid crisp" transform="translate(185.37,0)" d="M0,60v216" style="stroke: rgb(238, 238, 238); stroke-opacity: 1; stroke-width: 1px;"/><path class="xgrid crisp" transform="translate(248.68,0)" d="M0,60v216" style="stroke: rgb(238, 238, 238); stroke-opacity: 1; stroke-width: 1px;"/></g><g class="y"><path class="ygrid crisp" transform="translate(0,273.55)" d="M60,0h252" style="stroke: rgb(238, 238, 238); stroke-opacity: 1; stroke-width: 1px;"/><path class="ygrid crisp" transform="translate(0,238.47)" d="M60,0h252" style="stroke: rgb(238, 238, 238); stroke-opacity: 1; stroke-width: 1px;"/><path class="ygrid crisp" transform="translate(0,203.38)" d="M60,0h252" style="stroke: rgb(238, 238, 238); stroke-opacity: 1; stroke-width: 1px;"/><path class="ygrid crisp" transform="translate(0,168.3)" d="M60,0h252" style="stroke: rgb(238, 238, 238); stroke-opacity: 1; stroke-width: 1px;"/><path class="ygrid crisp" transform="translate(0,133.22)" d="M60,0h252" style="stroke: rgb(238, 238, 238); stroke-opacity: 1; stroke-width: 1px;"/><path class="ygrid crisp" transform="translate(0,98.14)" d="M60,0h252" style="stroke: rgb(238, 238, 238); stroke-opacity: 1; stroke-width: 1px;"/><path class="ygrid crisp" transform="translate(0,63.06)" d="M60,0h252" style="stroke: rgb(238, 238, 238); stroke-opacity: 1; stroke-width: 1px;"/></g></g><g class="zerolinelayer"/><path class="xlines-below"/><path class="ylines-below"/><g class="overlines-below"/><g class="xaxislayer-below"/><g class="yaxislayer-below"/><g class="overaxes-below"/><g class="plot" transform="translate(60,60)" clip-path="url('#clipcc4e68xyplot')"><g class="scatterlayer mlayer"><g class="trace scatter traceb550af" style="stroke-miterlimit: 2; opacity: 1;"><g class="fills"/><g class="errorbars"/><g class="lines"><path class="js-line" d="M0,10.8L2.53,34.67L3.8,36.74L5.07,43.6L6.33,55.33L8.86,59.97L10.13,66.54L11.4,74.36L12.66,73.61L15.2,84.64L16.46,87.79L17.73,90.96L18.99,96.78L20.26,97.38L21.53,100.27L24.06,106.63L25.33,108.07L27.86,113.43L29.13,114.27L31.66,119.38L32.92,120.36L36.72,126.06L37.99,125.93L39.26,126.42L40.52,130.55L44.32,133.87L45.59,136.77L46.85,134.19L48.12,137.39L50.65,137.73L51.92,139.52L53.19,138.65L54.45,142.43L55.72,143.44L56.98,143.29L58.25,143.82L59.52,146.19L60.78,144.3L62.05,147.06L64.58,149.63L65.85,148.12L67.12,147.5L68.38,151.03L69.65,148.52L70.91,151.1L72.18,150.32L73.45,153.25L74.71,154.56L75.98,151.72L77.25,155.07L78.51,153.47L79.78,157.82L81.05,153.3L83.58,157.75L84.84,153.49L86.11,159.08L87.38,158.4L91.18,159.13L92.44,161.57L93.71,162.05L94.97,158.51L96.24,161.98L97.51,159.76L101.31,165.23L102.57,161.62L105.11,166.16L106.37,165.99L107.64,165.44L108.9,166.4L110.17,166.75L111.44,164.11L112.7,165.52L113.97,168.58L115.24,167.72L116.5,168.17L119.04,168.41L120.3,169.87L122.83,169.94L124.1,168.72L125.37,170.73L126.63,169.37L129.17,171.63L130.43,171.5L134.23,173.74L135.5,173.73L136.76,176.12L138.03,173.71L139.3,174.52L140.56,176.24L141.83,177.28L143.1,176.19L144.36,179.78L145.63,178.36L146.89,177.83L148.16,179.46L150.69,179.96L151.96,180.97L153.23,181.46L154.49,180.62L155.76,183.17L157.03,182.74L160.82,183.8L162.09,183.51L163.36,184.82L164.62,184.99L165.89,185.91L167.16,185.75L168.42,187.03L169.69,187.16L172.22,187.38L173.49,188.1L178.55,190.24L179.82,190.34L183.62,192.29L184.88,192.15L186.15,192.5L187.42,193.63L188.68,193.48L189.95,194.64L192.48,194.4L193.75,194.97L195.02,195.3L196.28,192.37L197.55,196.67L198.81,196.08L202.61,197.98L203.88,197.97L214.01,201.23L215.28,200.68L224.14,202.96L225.41,202.17L226.67,202.08L227.94,203.3L233.01,203.79L234.27,202.99L236.8,204.39L238.07,204.2L244.4,204.76L245.67,205.11L249.47,204.65L250.73,205.2L252,204.54" style="vector-effect: non-scaling-stroke; fill: none; stroke: rgb(31, 119, 180); stroke-opacity: 1; stroke-width: 2px; opacity: 1;"/></g><g class="points"/><g class="text"/></g></g></g><g class="overplot"/><path class="xlines-above crisp" d="M0,0" style="fill: none;"/><path class="ylines-above crisp" d="M0,0" style="fill: none;"/><g class="overlines-above"/><g class="xaxislayer-above"><g class="xtick"><text text-anchor="middle" x="0" y="289" transform="translate(122.05,0)" style="font-family: 'Open Sans', verdana, arial, sans-serif; font-size: 12px; fill: rgb(68, 68, 68); fill-opacity: 1; white-space: pre;">50</text></g><g class="xtick"><text text-anchor="middle" x="0" y="289" transform="translate(185.37,0)" style="font-family: 'Open Sans', verdana, arial, sans-serif; font-size: 12px; fill: rgb(68, 68, 68); fill-opacity: 1; white-space: pre;">100</text></g><g class="xtick"><text text-anchor="middle" x="0" y="289" transform="translate(248.68,0)" style="font-family: 'Open Sans', verdana, arial, sans-serif; font-size: 12px; fill: rgb(68, 68, 68); fill-opacity: 1; white-space: pre;">150</text></g><g class="xtick"><text text-anchor="middle" x="0" y="289" transform="translate(312,0)" style="font-family: 'Open Sans', verdana, arial, sans-serif; font-size: 12px; fill: rgb(68, 68, 68); fill-opacity: 1; white-space: pre;">200</text></g></g><g class="yaxislayer-above"><g class="ytick"><text text-anchor="end" x="59" y="4.199999999999999" transform="translate(0,273.55)" style="font-family: 'Open Sans', verdana, arial, sans-serif; font-size: 12px; fill: rgb(68, 68, 68); fill-opacity: 1; white-space: pre;">0.4</text></g><g class="ytick"><text text-anchor="end" x="59" y="4.199999999999999" transform="translate(0,238.47)" style="font-family: 'Open Sans', verdana, arial, sans-serif; font-size: 12px; fill: rgb(68, 68, 68); fill-opacity: 1; white-space: pre;">0.6</text></g><g class="ytick"><text text-anchor="end" x="59" y="4.199999999999999" transform="translate(0,203.38)" style="font-family: 'Open Sans', verdana, arial, sans-serif; font-size: 12px; fill: rgb(68, 68, 68); fill-opacity: 1; white-space: pre;">0.8</text></g><g class="ytick"><text text-anchor="end" x="59" y="4.199999999999999" transform="translate(0,168.3)" style="font-family: 'Open Sans', verdana, arial, sans-serif; font-size: 12px; fill: rgb(68, 68, 68); fill-opacity: 1; white-space: pre;">1</text></g><g class="ytick"><text text-anchor="end" x="59" y="4.199999999999999" transform="translate(0,133.22)" style="font-family: 'Open Sans', verdana, arial, sans-serif; font-size: 12px; fill: rgb(68, 68, 68); fill-opacity: 1; white-space: pre;">1.2</text></g><g class="ytick"><text text-anchor="end" x="59" y="4.199999999999999" transform="translate(0,98.14)" style="font-family: 'Open Sans', verdana, arial, sans-serif; font-size: 12px; fill: rgb(68, 68, 68); fill-opacity: 1; white-space: pre;">1.4</text></g><g class="ytick"><text text-anchor="end" x="59" y="4.199999999999999" transform="translate(0,63.06)" style="font-family: 'Open Sans', verdana, arial, sans-serif; font-size: 12px; fill: rgb(68, 68, 68); fill-opacity: 1; white-space: pre;">1.6</text></g></g><g class="overaxes-above"/></g></g><g class="polarlayer"/><g class="ternarylayer"/><g class="geolayer"/><g class="funnelarealayer"/><g class="pielayer"/><g class="treemaplayer"/><g class="sunburstlayer"/><g class="glimages"/><defs id="topdefs-cc4e68"><g class="clips"/></defs><g class="layer-above"><g class="imagelayer"/><g class="shapelayer"/></g><g class="infolayer"><g class="g-gtitle"><text class="gtitle" x="186" y="30" text-anchor="middle" dy="0em" style="font-family: 'Open Sans', verdana, arial, sans-serif; font-size: 17px; fill: rgb(68, 68, 68); opacity: 1; font-weight: normal; white-space: pre;">loss_G_identity</text></g><g class="g-xtitle"><text class="xtitle" x="186" y="328" text-anchor="middle" style="font-family: 'Open Sans', verdana, arial, sans-serif; font-size: 14px; fill: rgb(68, 68, 68); opacity: 1; font-weight: normal; white-space: pre;">epochs</text></g><g class="g-ytitle"><text class="ytitle" transform="rotate(-90,22,168)" x="22" y="168" text-anchor="middle" style="font-family: 'Open Sans', verdana, arial, sans-serif; font-size: 14px; fill: rgb(68, 68, 68); opacity: 1; font-weight: normal; white-space: pre;">loss_G_identity</text></g></g></svg>