<svg class="main-svg" xmlns="http://www.w3.org/2000/svg" xmlns:xlink="http://www.w3.org/1999/xlink" width="372" height="336" style="" viewBox="0 0 372 336"><rect x="0" y="0" width="372" height="336" style="fill: rgb(255, 255, 255); fill-opacity: 1;"/><defs id="defs-143c97"><g class="clips"><clipPath id="clip143c97xyplot" class="plotclip"><rect width="252" height="216"/></clipPath><clipPath class="axesclip" id="clip143c97x"><rect x="60" y="0" width="252" height="336"/></clipPath><clipPath class="axesclip" id="clip143c97y"><rect x="0" y="60" width="372" height="216"/></clipPath><clipPath class="axesclip" id="clip143c97xy"><rect x="60" y="60" width="252" height="216"/></clipPath></g><g class="gradients"/></defs><g class="bglayer"/><g class="layer-below"><g class="imagelayer"/><g class="shapelayer"/></g><g class="cartesianlayer"><g class="subplot xy"><g class="layer-subplot"><g class="shapelayer"/><g class="imagelayer"/></g><g class="gridlayer"><g class="x"><path class="xgrid crisp" transform="translate(122.05,0)" d="M0,60v216" style="stroke: rgb(238, 238, 238); stroke-opacity: 1; stroke-width: 1px;"/><path class="xgrid crisp" transform="translate(185.37,0)" d="M0,60v216" style="stroke: rgb(238, 238, 238); stroke-opacity: 1; stroke-width: 1px;"/><path class="xgrid crisp" transform="translate(248.68,0)" d="M0,60v216" style="stroke: rgb(238, 238, 238); stroke-opacity: 1; stroke-width: 1px;"/></g><g class="y"><path class="ygrid crisp" transform="translate(0,268.43)" d="M60,0h252" style="stroke: rgb(238, 238, 238); stroke-opacity: 1; stroke-width: 1px;"/><path class="ygrid crisp" transform="translate(0,212.03)" d="M60,0h252" style="stroke: rgb(238, 238, 238); stroke-opacity: 1; stroke-width: 1px;"/><path class="ygrid crisp" transform="translate(0,155.64)" d="M60,0h252" style="stroke: rgb(238, 238, 238); stroke-opacity: 1; stroke-width: 1px;"/><path class="ygrid crisp" transform="translate(0,99.24000000000001)" d="M60,0h252" style="stroke: rgb(238, 238, 238); stroke-opacity: 1; stroke-width: 1px;"/></g></g><g class="zerolinelayer"/><path class="xlines-below"/><path class="ylines-below"/><g class="overlines-below"/><g class="xaxislayer-below"/><g class="yaxislayer-below"/><g class="overaxes-below"/><g class="plot" transform="translate(60,60)" clip-path="url('#clip143c97xyplot')"><g class="scatterlayer mlayer"><g class="trace scatter trace04fc2d" style="stroke-miterlimit: 2; opacity: 1;"><g class="fills"/><g class="errorbars"/><g class="lines"><path class="js-line" d="M0,195.99L1.27,191.34L2.53,199.02L3.8,188.77L5.07,200.65L7.6,193.32L8.86,195.76L10.13,193.3L11.4,197.56L12.66,196.34L13.93,199.27L16.46,188.9L17.73,187.17L18.99,187.16L20.26,194.08L21.53,188.27L22.79,205.2L24.06,196.86L25.33,193.57L26.59,187.11L27.86,196.65L29.13,192.2L30.39,191.8L31.66,191.83L32.92,189.4L34.19,186.84L35.46,187.17L37.99,182.04L39.26,180.19L40.52,187.9L41.79,183.65L43.06,176.55L44.32,179.59L45.59,182.73L46.85,173.07L48.12,166.89L49.39,172.7L50.65,165.17L51.92,162.2L53.19,177.78L54.45,165.78L55.72,162.17L56.98,163.2L58.25,158.45L59.52,162.7L60.78,156.52L62.05,155.31L63.32,164.47L64.58,167.12L65.85,159.54L67.12,159.72L68.38,158.14L69.65,152.57L70.91,157.18L72.18,147.16L73.45,140.73L74.71,149.74L75.98,149.38L77.25,151.5L78.51,147.61L79.78,147.94L81.05,134.37L82.31,135.7L83.58,130.54L84.84,132.57L86.11,137.2L87.38,134.26L88.64,135.79L89.91,138.63L91.18,126.81L92.44,134.92L93.71,139.17L94.97,124.76L97.51,129.61L98.77,135.2L100.04,126.66L101.31,128.63L103.84,116.61L105.11,127.01L106.37,127.44L107.64,114.9L108.9,112.59L110.17,119.49L111.44,121.79L112.7,113.36L113.97,118.11L115.24,119.08L116.5,115.11L117.77,115.16L119.04,113.53L120.3,109.24L121.57,111.53L122.83,108.26L124.1,109.34L125.37,113.45L126.63,109.98L127.9,101.32L129.17,106.43L130.43,105.37L131.7,94.22L132.96,99.7L134.23,103.24L135.5,98.87L138.03,94.62L139.3,99.09L140.56,89.64L141.83,93.46L143.1,95.21L144.36,87.16L145.63,82.02L146.89,88.2L148.16,86.41L149.43,83.25L150.69,85.06L151.96,77.2L153.23,84.06L154.49,75.5L155.76,80.48L157.03,74.34L159.56,79.36L160.82,74.65L164.62,66.33L165.89,70.27L167.16,65.85L168.42,65.3L169.69,65.46L170.95,61.86L173.49,67.68L174.75,63.12L176.02,63.12L177.29,58.21L178.55,62.14L179.82,58.37L181.09,55.98L182.35,49.76L183.62,58.67L184.88,46.04L187.42,57.11L188.68,50.81L189.95,47.99L191.22,43.13L193.75,42.99L195.02,41.88L196.28,41.85L197.55,40.65L200.08,33.96L201.35,36.05L202.61,37.49L203.88,34.91L205.15,30.01L206.41,31.89L207.68,35.83L208.94,33.5L211.48,23.09L212.74,24.84L214.01,30.21L215.28,24.01L216.54,30.1L217.81,23.69L220.34,28.6L221.61,23.87L222.87,23.56L224.14,24.58L225.41,23.16L226.67,23.14L227.94,24.35L229.21,22.12L230.47,18.81L231.74,21.5L234.27,16.26L235.54,16.09L236.8,17.43L238.07,19.95L239.34,18.08L240.6,14.21L241.87,14.53L243.14,16.68L244.4,16.12L245.67,14.54L246.93,16.99L248.2,14.77L250.73,10.8L252,15.97" style="vector-effect: non-scaling-stroke; fill: none; stroke: rgb(31, 119, 180); stroke-opacity: 1; stroke-width: 2px; opacity: 1;"/></g><g class="points"/><g class="text"/></g></g></g><g class="overplot"/><path class="xlines-above crisp" d="M0,0" style="fill: none;"/><path class="ylines-above crisp" d="M0,0" style="fill: none;"/><g class="overlines-above"/><g class="xaxislayer-above"><g class="xtick"><text text-anchor="middle" x="0" y="289" transform="translate(122.05,0)" style="font-family: 'Open Sans', verdana, arial, sans-serif; font-size: 12px; fill: rgb(68, 68, 68); fill-opacity: 1; white-space: pre;">50</text></g><g class="xtick"><text text-anchor="middle" x="0" y="289" transform="translate(185.37,0)" style="font-family: 'Open Sans', verdana, arial, sans-serif; font-size: 12px; fill: rgb(68, 68, 68); fill-opacity: 1; white-space: pre;">100</text></g><g class="xtick"><text text-anchor="middle" x="0" y="289" transform="translate(248.68,0)" style="font-family: 'Open Sans', verdana, arial, sans-serif; font-size: 12px; fill: rgb(68, 68, 68); fill-opacity: 1; white-space: pre;">150</text></g><g class="xtick"><text text-anchor="middle" x="0" y="289" transform="translate(312,0)" style="font-family: 'Open Sans', verdana, arial, sans-serif; font-size: 12px; fill: rgb(68, 68, 68); fill-opacity: 1; white-space: pre;">200</text></g></g><g class="yaxislayer-above"><g class="ytick"><text text-anchor="end" x="59" y="4.199999999999999" transform="translate(0,268.43)" style="font-family: 'Open Sans', verdana, arial, sans-serif; font-size: 12px; fill: rgb(68, 68, 68); fill-opacity: 1; white-space: pre;">0.8</text></g><g class="ytick"><text text-anchor="end" x="59" y="4.199999999999999" transform="translate(0,212.03)" style="font-family: 'Open Sans', verdana, arial, sans-serif; font-size: 12px; fill: rgb(68, 68, 68); fill-opacity: 1; white-space: pre;">1</text></g><g class="ytick"><text text-anchor="end" x="59" y="4.199999999999999" transform="translate(0,155.64)" style="font-family: 'Open Sans', verdana, arial, sans-serif; font-size: 12px; fill: rgb(68, 68, 68); fill-opacity: 1; white-space: pre;">1.2</text></g><g class="ytick"><text text-anchor="end" x="59" y="4.199999999999999" transform="translate(0,99.24000000000001)" style="font-family: 'Open Sans', verdana, arial, sans-serif; font-size: 12px; fill: rgb(68, 68, 68); fill-opacity: 1; white-space: pre;">1.4</text></g></g><g class="overaxes-above"/></g></g><g class="polarlayer"/><g class="ternarylayer"/><g class="geolayer"/><g class="funnelarealayer"/><g class="pielayer"/><g class="treemaplayer"/><g class="sunburstlayer"/><g class="glimages"/><defs id="topdefs-143c97"><g class="clips"/></defs><g class="layer-above"><g class="imagelayer"/><g class="shapelayer"/></g><g class="infolayer"><g class="g-gtitle"><text class="gtitle" x="186" y="30" text-anchor="middle" dy="0em" style="font-family: 'Open Sans', verdana, arial, sans-serif; font-size: 17px; fill: rgb(68, 68, 68); opacity: 1; font-weight: normal; white-space: pre;">loss_G_GAN</text></g><g class="g-xtitle"><text class="xtitle" x="186" y="328" text-anchor="middle" style="font-family: 'Open Sans', verdana, arial, sans-serif; font-size: 14px; fill: rgb(68, 68, 68); opacity: 1; font-weight: normal; white-space: pre;">epochs</text></g><g class="g-ytitle"><text class="ytitle" transform="rotate(-90,22,168)" x="22" y="168" text-anchor="middle" style="font-family: 'Open Sans', verdana, arial, sans-serif; font-size: 14px; fill: rgb(68, 68, 68); opacity: 1; font-weight: normal; white-space: pre;">loss_G_GAN</text></g></g></svg>