<svg class="main-svg" xmlns="http://www.w3.org/2000/svg" xmlns:xlink="http://www.w3.org/1999/xlink" width="372" height="336" style="" viewBox="0 0 372 336"><rect x="0" y="0" width="372" height="336" style="fill: rgb(255, 255, 255); fill-opacity: 1;"/><defs id="defs-fa783b"><g class="clips"><clipPath id="clipfa783bxyplot" class="plotclip"><rect width="252" height="216"/></clipPath><clipPath class="axesclip" id="clipfa783bx"><rect x="60" y="0" width="252" height="336"/></clipPath><clipPath class="axesclip" id="clipfa783by"><rect x="0" y="60" width="372" height="216"/></clipPath><clipPath class="axesclip" id="clipfa783bxy"><rect x="60" y="60" width="252" height="216"/></clipPath></g><g class="gradients"/></defs><g class="bglayer"/><g class="layer-below"><g class="imagelayer"/><g class="shapelayer"/></g><g class="cartesianlayer"><g class="subplot xy"><g class="layer-subplot"><g class="shapelayer"/><g class="imagelayer"/></g><g class="gridlayer"><g class="x"><path class="xgrid crisp" transform="translate(122.05,0)" d="M0,60v216" style="stroke: rgb(238, 238, 238); stroke-opacity: 1; stroke-width: 1px;"/><path class="xgrid crisp" transform="translate(185.37,0)" d="M0,60v216" style="stroke: rgb(238, 238, 238); stroke-opacity: 1; stroke-width: 1px;"/><path class="xgrid crisp" transform="translate(248.68,0)" d="M0,60v216" style="stroke: rgb(238, 238, 238); stroke-opacity: 1; stroke-width: 1px;"/></g><g class="y"><path class="ygrid crisp" transform="translate(0,259.41999999999996)" d="M60,0h252" style="stroke: rgb(238, 238, 238); stroke-opacity: 1; stroke-width: 1px;"/><path class="ygrid crisp" transform="translate(0,217.54)" d="M60,0h252" style="stroke: rgb(238, 238, 238); stroke-opacity: 1; stroke-width: 1px;"/><path class="ygrid crisp" transform="translate(0,175.67000000000002)" d="M60,0h252" style="stroke: rgb(238, 238, 238); stroke-opacity: 1; stroke-width: 1px;"/><path class="ygrid crisp" transform="translate(0,133.79000000000002)" d="M60,0h252" style="stroke: rgb(238, 238, 238); stroke-opacity: 1; stroke-width: 1px;"/><path class="ygrid crisp" transform="translate(0,91.92)" d="M60,0h252" style="stroke: rgb(238, 238, 238); stroke-opacity: 1; stroke-width: 1px;"/></g></g><g class="zerolinelayer"/><path class="xlines-below"/><path class="ylines-below"/><g class="overlines-below"/><g class="xaxislayer-below"/><g class="yaxislayer-below"/><g class="overaxes-below"/><g class="plot" transform="translate(60,60)" clip-path="url('#clipfa783bxyplot')"><g class="scatterlayer mlayer"><g class="trace scatter trace524614" style="stroke-miterlimit: 2; opacity: 1;"><g class="fills"/><g class="errorbars"/><g class="lines"><path class="js-line" d="M0,10.8L1.27,19.43L2.53,44.65L3.8,44.93L5.07,60.04L6.33,70.27L7.6,71.92L8.86,74.37L10.13,82.73L11.4,92.32L12.66,91.18L13.93,99.7L15.2,102.98L17.73,108.6L18.99,114.38L20.26,116.5L21.53,120.37L22.79,130.23L24.06,130.62L25.33,129.05L26.59,130.15L27.86,137.13L29.13,135.52L30.39,141.59L31.66,142.9L32.92,142.12L34.19,143.77L35.46,148.51L36.72,147.83L37.99,146.84L39.26,148.71L40.52,153.53L41.79,153.85L43.06,152.98L44.32,154.99L45.59,160.23L46.85,153.17L48.12,156.9L49.39,157.45L50.65,156.34L51.92,157.98L53.19,162.14L54.45,162.17L56.98,162.37L58.25,160.43L59.52,165.41L60.78,161.92L62.05,162.85L63.32,169.85L64.58,170.14L65.85,167.53L67.12,166.22L68.38,168.36L69.65,167.18L70.91,170.99L72.18,168.27L73.45,167.94L74.71,173.35L75.98,170.42L77.25,173.73L78.51,171.93L79.78,176.59L81.05,164.54L82.31,169.54L83.58,169.41L84.84,167.49L86.11,174.36L87.38,172.74L88.64,173.86L89.91,175.2L91.18,173.22L93.71,179.37L94.97,169.84L96.24,175.73L97.51,176.1L98.77,178.3L100.04,176.87L101.31,181.12L102.57,177.86L103.84,178.44L105.11,183.33L106.37,183.58L107.64,178.17L110.17,181.82L111.44,181.96L112.7,178.37L113.97,185.09L116.5,181.88L117.77,182.58L119.04,184.49L120.3,183.83L121.57,184.82L122.83,183.73L124.1,182.1L125.37,185.31L126.63,182.78L127.9,182.54L129.17,186.93L130.43,186.4L131.7,184.16L132.96,187.63L134.23,189.31L135.5,187.43L136.76,189.47L138.03,187.29L140.56,189.24L141.83,189.74L143.1,189.1L144.36,190.81L145.63,188.12L146.89,188.69L148.16,190.07L149.43,189.73L150.69,191.33L151.96,190.81L153.23,193.09L154.49,191.1L155.76,194.7L157.03,192.82L159.56,194.79L160.82,194.49L162.09,192.35L163.36,193.49L164.62,192.16L165.89,196.06L167.16,192.2L168.42,195.42L169.69,195.71L170.95,194.99L173.49,196.69L174.75,195.93L176.02,198.74L177.29,197.95L178.55,199.03L179.82,197.71L181.09,199.2L182.35,197.41L183.62,201.32L184.88,196.42L187.42,201.93L188.68,199.58L189.95,200.92L191.22,199.41L192.48,198.88L193.75,200.34L196.28,199.3L197.55,201.62L198.81,199.61L200.08,200.11L202.61,202.72L203.88,202.35L205.15,200.8L206.41,202.4L207.68,204.03L208.94,203.8L210.21,201.64L211.48,201.78L214.01,204.18L215.28,202.28L216.54,203.84L217.81,202.38L220.34,205.2L221.61,204.14L222.87,202.84L224.14,204.47L226.67,202.3L227.94,204.34L229.21,204.56L230.47,203.04L231.74,204.57L233.01,203.56L234.27,201.61L235.54,202.52L238.07,204.28L239.34,203.18L241.87,202.67L243.14,203.46L248.2,203.54L249.47,202.38L250.73,203.22L252,202.75" style="vector-effect: non-scaling-stroke; fill: none; stroke: rgb(31, 119, 180); stroke-opacity: 1; stroke-width: 2px; opacity: 1;"/></g><g class="points"/><g class="text"/></g></g></g><g class="overplot"/><path class="xlines-above crisp" d="M0,0" style="fill: none;"/><path class="ylines-above crisp" d="M0,0" style="fill: none;"/><g class="overlines-above"/><g class="xaxislayer-above"><g class="xtick"><text text-anchor="middle" x="0" y="289" transform="translate(122.05,0)" style="font-family: 'Open Sans', verdana, arial, sans-serif; font-size: 12px; fill: rgb(68, 68, 68); fill-opacity: 1; white-space: pre;">50</text></g><g class="xtick"><text text-anchor="middle" x="0" y="289" transform="translate(185.37,0)" style="font-family: 'Open Sans', verdana, arial, sans-serif; font-size: 12px; fill: rgb(68, 68, 68); fill-opacity: 1; white-space: pre;">100</text></g><g class="xtick"><text text-anchor="middle" x="0" y="289" transform="translate(248.68,0)" style="font-family: 'Open Sans', verdana, arial, sans-serif; font-size: 12px; fill: rgb(68, 68, 68); fill-opacity: 1; white-space: pre;">150</text></g><g class="xtick"><text text-anchor="middle" x="0" y="289" transform="translate(312,0)" style="font-family: 'Open Sans', verdana, arial, sans-serif; font-size: 12px; fill: rgb(68, 68, 68); fill-opacity: 1; white-space: pre;">200</text></g></g><g class="yaxislayer-above"><g class="ytick"><text text-anchor="end" x="59" y="4.199999999999999" transform="translate(0,259.41999999999996)" style="font-family: 'Open Sans', verdana, arial, sans-serif; font-size: 12px; fill: rgb(68, 68, 68); fill-opacity: 1; white-space: pre;">3.5</text></g><g class="ytick"><text text-anchor="end" x="59" y="4.199999999999999" transform="translate(0,217.54)" style="font-family: 'Open Sans', verdana, arial, sans-serif; font-size: 12px; fill: rgb(68, 68, 68); fill-opacity: 1; white-space: pre;">4</text></g><g class="ytick"><text text-anchor="end" x="59" y="4.199999999999999" transform="translate(0,175.67000000000002)" style="font-family: 'Open Sans', verdana, arial, sans-serif; font-size: 12px; fill: rgb(68, 68, 68); fill-opacity: 1; white-space: pre;">4.5</text></g><g class="ytick"><text text-anchor="end" x="59" y="4.199999999999999" transform="translate(0,133.79000000000002)" style="font-family: 'Open Sans', verdana, arial, sans-serif; font-size: 12px; fill: rgb(68, 68, 68); fill-opacity: 1; white-space: pre;">5</text></g><g class="ytick"><text text-anchor="end" x="59" y="4.199999999999999" transform="translate(0,91.92)" style="font-family: 'Open Sans', verdana, arial, sans-serif; font-size: 12px; fill: rgb(68, 68, 68); fill-opacity: 1; white-space: pre;">5.5</text></g></g><g class="overaxes-above"/></g></g><g class="polarlayer"/><g class="ternarylayer"/><g class="geolayer"/><g class="funnelarealayer"/><g class="pielayer"/><g class="treemaplayer"/><g class="sunburstlayer"/><g class="glimages"/><defs id="topdefs-fa783b"><g class="clips"/></defs><g class="layer-above"><g class="imagelayer"/><g class="shapelayer"/></g><g class="infolayer"><g class="g-gtitle"><text class="gtitle" x="186" y="30" text-anchor="middle" dy="0em" style="font-family: 'Open Sans', verdana, arial, sans-serif; font-size: 17px; fill: rgb(68, 68, 68); opacity: 1; font-weight: normal; white-space: pre;">loss_G</text></g><g class="g-xtitle"><text class="xtitle" x="186" y="328" text-anchor="middle" style="font-family: 'Open Sans', verdana, arial, sans-serif; font-size: 14px; fill: rgb(68, 68, 68); opacity: 1; font-weight: normal; white-space: pre;">epochs</text></g><g class="g-ytitle"><text class="ytitle" transform="rotate(-90,22,168)" x="22" y="168" text-anchor="middle" style="font-family: 'Open Sans', verdana, arial, sans-serif; font-size: 14px; fill: rgb(68, 68, 68); opacity: 1; font-weight: normal; white-space: pre;">loss_G</text></g></g></svg>